<svg width="733" height="476" viewBox="0 0 733 476" fill="none" xmlns="http://www.w3.org/2000/svg">
<g clip-path="url(#clip0)">
<path d="M721.605 192.288C694.768 82.5152 602.036 3.27498 493.188 0.0967304C435.644 -1.58352 375.091 18.2684 331.004 87.7374C252.194 211.921 335.847 297.735 394.168 338.512C422.344 358.253 447.732 381.988 469.597 409.032C508.991 457.658 584.775 518.082 675.031 423.407C740.449 354.786 739.482 265.407 721.605 192.288Z" fill="#F2F2F2"/>
<path d="M101.377 275.511C100.654 274.397 99.9434 273.253 99.2644 272.112L100.361 271.406C101.031 272.533 101.732 273.661 102.446 274.76L101.377 275.511Z" fill="#3F3D56"/>
<path d="M95.3765 264.924C94.1806 262.482 93.069 259.96 92.073 257.427L93.2661 256.919C94.2493 259.418 95.3457 261.906 96.5256 264.315L95.3765 264.924ZM89.3783 249.672C88.5872 247.061 87.8918 244.382 87.311 241.711L88.5689 241.415C89.1416 244.05 89.8275 246.693 90.6079 249.268L89.3783 249.672ZM85.8852 233.6C85.5197 230.893 85.2578 228.133 85.1061 225.395L86.3936 225.318C86.5429 228.019 86.8016 230.743 87.1621 233.413L85.8852 233.6ZM86.2608 217.182L84.972 217.151C85.034 214.41 85.2053 211.642 85.4807 208.925L86.7632 209.066C86.4912 211.747 86.3222 214.477 86.2608 217.182V217.182ZM87.9031 201.02L86.6363 200.77C87.1274 198.08 87.7328 195.379 88.4357 192.742L89.6786 193.1C88.9848 195.702 88.3876 198.367 87.9031 201.02V201.02ZM92.0793 185.359L90.8698 184.895C91.7815 182.326 92.8087 179.764 93.9228 177.28L95.0913 177.848C93.992 180.298 92.9787 182.825 92.0793 185.359V185.359ZM268.67 181.214C267.662 178.727 266.54 176.252 265.336 173.856L266.479 173.235C267.7 175.663 268.837 178.172 269.858 180.692L268.67 181.214ZM98.6898 170.621L97.5704 169.956C98.8762 167.58 100.294 165.23 101.786 162.97L102.848 163.729C101.377 165.959 99.978 168.277 98.6898 170.621ZM261.429 166.81C260.041 164.528 258.543 162.278 256.978 160.122L258.008 159.314C259.594 161.499 261.111 163.78 262.519 166.092L261.429 166.81ZM107.537 157.217L106.538 156.369C108.201 154.246 109.969 152.17 111.793 150.196L112.723 151.125C110.923 153.073 109.178 155.122 107.537 157.217ZM252.015 153.835C250.286 151.819 248.455 149.853 246.573 147.992L247.462 147.02C249.369 148.906 251.224 150.899 252.977 152.942L252.015 153.835ZM118.369 145.496L117.516 144.491C119.489 142.68 121.559 140.931 123.668 139.293L124.439 140.368C122.358 141.984 120.316 143.709 118.369 145.496ZM240.69 142.631C238.667 140.935 236.552 139.306 234.403 137.789L235.127 136.679C237.305 138.217 239.449 139.868 241.499 141.586L240.69 142.631ZM130.891 135.775L130.208 134.638C132.44 133.186 134.757 131.813 137.093 130.559L137.684 131.751C135.379 132.988 133.094 134.342 130.891 135.775ZM227.756 133.501C225.491 132.172 223.147 130.926 220.791 129.798L221.33 128.579C223.718 129.723 226.094 130.986 228.39 132.333L227.756 133.501ZM144.771 128.324L144.277 127.086C146.706 126.036 149.208 125.08 151.711 124.243L152.105 125.52C149.636 126.345 147.168 127.289 144.771 128.324ZM213.555 126.706C211.115 125.785 208.606 124.958 206.098 124.25L206.436 122.956C208.978 123.674 211.521 124.512 213.995 125.446L213.555 126.706ZM159.642 123.357L159.351 122.05C161.911 121.433 164.532 120.919 167.139 120.523L167.325 121.85C164.753 122.241 162.168 122.748 159.642 123.357V123.357ZM198.471 122.446C195.923 121.957 193.318 121.573 190.729 121.304L190.857 119.969C193.481 120.242 196.121 120.631 198.705 121.127L198.471 122.446ZM175.102 121.007L175.021 119.668C177.643 119.496 180.317 119.435 182.945 119.484L182.921 120.825C180.327 120.776 177.69 120.837 175.102 121.007V121.007Z" fill="#3F3D56"/>
<path d="M272.554 192.754C272.208 191.478 271.833 190.191 271.438 188.93L272.664 188.514C273.064 189.793 273.445 191.097 273.795 192.391L272.554 192.754Z" fill="#3F3D56"/>
<path d="M264.691 117.643H263.402C263.402 116.301 263.424 114.939 263.469 113.596L264.758 113.643C264.714 114.971 264.691 116.317 264.691 117.643Z" fill="#3F3D56"/>
<path d="M265.305 105.577L264.022 105.435C264.298 102.734 264.672 100.011 265.133 97.3416L266.402 97.5787C265.947 100.217 265.578 102.908 265.305 105.577ZM268.05 89.6828L266.801 89.3514C267.446 86.719 268.192 84.0797 269.017 81.5066L270.241 81.931C269.425 84.474 268.688 87.0818 268.05 89.6828V89.6828ZM473.691 75.5322C472.727 73.0432 471.663 70.5598 470.53 68.1517L471.689 67.5623C472.835 69.9992 473.911 72.5121 474.887 75.0312L473.691 75.5322ZM272.966 74.3566L271.775 73.8412C272.778 71.3349 273.882 68.8328 275.058 66.4044L276.209 67.0076C275.048 69.4075 273.957 71.8797 272.966 74.3566V74.3566ZM466.867 61.0256C465.571 58.7079 464.177 56.4082 462.723 54.1907L463.788 53.4349C465.26 55.6789 466.67 58.0058 467.981 60.3511L466.867 61.0256ZM279.952 59.9211L278.845 59.2335C280.181 56.9046 281.618 54.5934 283.115 52.3644L284.172 53.1327C282.692 55.3354 281.272 57.6194 279.952 59.9211H279.952ZM458.119 47.6809C456.516 45.5757 454.821 43.5058 453.081 41.5286L454.032 40.6229C455.792 42.6237 457.508 44.7178 459.13 46.8478L458.119 47.6809ZM288.848 46.6762L287.846 45.8314C289.491 43.7213 291.229 41.6472 293.013 39.6667L293.954 40.5836C292.191 42.5411 290.473 44.591 288.848 46.6762ZM447.634 35.7651C445.76 33.9189 443.799 32.1206 441.806 30.4194L442.623 29.3827C444.641 31.1035 446.625 32.9235 448.521 34.7913L447.634 35.7651ZM299.463 34.8856L298.587 33.9013C300.502 32.0574 302.505 30.2613 304.541 28.5634L305.348 29.61C303.335 31.2882 301.355 33.063 299.463 34.8856V34.8856ZM435.627 25.5194C433.52 23.9692 431.333 22.4793 429.126 21.0909L429.794 19.9435C432.026 21.3483 434.239 22.8559 436.371 24.4244L435.627 25.5194ZM311.577 24.7846L310.844 23.6811C312.991 22.1394 315.219 20.659 317.467 19.2804L318.121 20.4357C315.9 21.7982 313.698 23.2613 311.577 24.7846V24.7846ZM422.338 17.1585C420.039 15.9371 417.67 14.7884 415.295 13.7435L415.798 12.5083C418.201 13.5654 420.598 14.7281 422.925 15.964L422.338 17.1585ZM324.947 16.5865L324.374 15.3854C326.71 14.179 329.117 13.0457 331.53 12.0172L332.019 13.2582C329.635 14.2746 327.255 15.3945 324.947 16.5864V16.5865ZM408.034 10.8655C405.595 10.0017 403.091 9.21907 400.592 8.5396L400.918 7.24223C403.447 7.92955 405.981 8.72167 408.449 9.59564L408.034 10.8655ZM339.301 10.4686L338.899 9.19419C341.377 8.34935 343.919 7.58737 346.452 6.92948L346.765 8.23079C344.261 8.88078 341.75 9.6336 339.301 10.4686L339.301 10.4686ZM393.01 6.77952C390.474 6.28997 387.889 5.89016 385.326 5.59086L385.469 4.25812C388.063 4.56102 390.679 4.96542 393.245 5.46056L393.01 6.77952ZM354.364 6.55882L354.143 5.23721C356.712 4.7719 359.331 4.39759 361.93 4.12419L362.059 5.45889C359.492 5.72871 356.903 6.09873 354.364 6.5588L354.364 6.55882ZM377.58 4.9759C374.998 4.86686 372.373 4.85245 369.811 4.93202L369.771 3.59144C372.365 3.51089 375.02 3.52497 377.633 3.63597L377.58 4.9759Z" fill="#3F3D56"/>
<path d="M477.463 87.0412C477.118 85.7648 476.745 84.4763 476.356 83.2107L477.584 82.802C477.978 84.0823 478.355 85.3863 478.704 86.6778L477.463 87.0412Z" fill="#3F3D56"/>
<path d="M100.623 292.158C112.485 292.158 122.1 291.408 122.1 290.482C122.1 289.557 112.485 288.807 100.623 288.807C88.7618 288.807 79.1462 289.557 79.1462 290.482C79.1462 291.408 88.7618 292.158 100.623 292.158Z" fill="#FADE34"/>
<path d="M271.903 211.174C283.765 211.174 293.38 210.424 293.38 209.499C293.38 208.574 283.765 207.823 271.903 207.823C260.042 207.823 250.426 208.574 250.426 209.499C250.426 210.424 260.042 211.174 271.903 211.174Z" fill="#FADE34"/>
<path d="M483.453 126.84C495.314 126.84 504.93 126.09 504.93 125.165C504.93 124.239 495.314 123.489 483.453 123.489C471.591 123.489 461.976 124.239 461.976 125.165C461.976 126.09 471.591 126.84 483.453 126.84Z" fill="#FADE34"/>
<path d="M474.943 119.664L410.362 186.841L411.273 187.789L475.855 120.612L474.943 119.664Z" fill="#3F3D56"/>
<path d="M391.638 195.424H283.179V196.765H391.638V195.424Z" fill="#3F3D56"/>
<path d="M263.383 204.568L202.721 267.668L203.633 268.616L264.295 205.516L263.383 204.568Z" fill="#3F3D56"/>
<path d="M184.384 276.407H111.899V277.749H184.384V276.407Z" fill="#3F3D56"/>
<path d="M92.1946 284.897L20.1652 359.821L21.0769 360.769L93.1063 285.845L92.1946 284.897Z" fill="#3F3D56"/>
<path d="M100.623 289.478C98.2658 289.478 95.9611 288.75 94.0007 287.388C92.0404 286.026 90.5125 284.089 89.6102 281.823C88.7079 279.558 88.4718 277.065 88.9317 274.659C89.3917 272.254 90.5269 270.045 92.194 268.311C93.8611 266.576 95.9851 265.395 98.2974 264.917C100.61 264.439 103.007 264.684 105.185 265.623C107.363 266.561 109.225 268.15 110.534 270.189C111.844 272.228 112.543 274.626 112.543 277.078C112.54 280.365 111.283 283.517 109.048 285.842C106.814 288.166 103.784 289.474 100.623 289.478V289.478ZM100.623 266.02C98.5208 266.02 96.4654 266.668 94.7171 267.883C92.9688 269.098 91.6062 270.826 90.8015 272.846C89.9968 274.867 89.7862 277.09 90.1964 279.235C90.6066 281.38 91.619 283.351 93.1058 284.897C94.5925 286.444 96.4868 287.497 98.549 287.924C100.611 288.35 102.749 288.131 104.691 287.295C106.634 286.458 108.294 285.04 109.462 283.222C110.63 281.403 111.254 279.265 111.254 277.078C111.251 274.146 110.13 271.336 108.137 269.263C106.144 267.19 103.442 266.023 100.623 266.02V266.02Z" fill="#3F3D56"/>
<path d="M195.659 289.478C193.302 289.478 190.997 288.75 189.037 287.388C187.076 286.025 185.549 284.089 184.646 281.823C183.744 279.557 183.508 277.064 183.968 274.659C184.428 272.254 185.563 270.045 187.23 268.31C188.898 266.576 191.022 265.395 193.334 264.917C195.646 264.439 198.043 264.684 200.221 265.623C202.399 266.561 204.261 268.15 205.571 270.189C206.881 272.228 207.58 274.626 207.58 277.078C207.576 280.366 206.319 283.517 204.085 285.842C201.85 288.166 198.82 289.474 195.659 289.478ZM195.659 266.02C193.557 266.02 191.501 266.669 189.753 267.884C188.005 269.099 186.642 270.826 185.838 272.846C185.033 274.867 184.823 277.09 185.233 279.235C185.643 281.381 186.655 283.351 188.142 284.897C189.629 286.444 191.523 287.497 193.585 287.924C195.648 288.35 197.785 288.131 199.728 287.295C201.67 286.458 203.331 285.04 204.499 283.222C205.667 281.403 206.29 279.265 206.29 277.078C206.287 274.146 205.166 271.336 203.173 269.263C201.18 267.189 198.478 266.023 195.659 266.02V266.02Z" fill="#3F3D56"/>
<path d="M271.903 208.494C269.546 208.494 267.241 207.767 265.281 206.404C263.32 205.042 261.793 203.105 260.89 200.84C259.988 198.574 259.752 196.081 260.212 193.676C260.672 191.271 261.807 189.061 263.474 187.327C265.142 185.593 267.265 184.412 269.578 183.934C271.89 183.455 274.287 183.701 276.465 184.639C278.643 185.578 280.505 187.167 281.815 189.206C283.124 191.245 283.823 193.642 283.824 196.095C283.82 199.382 282.563 202.534 280.328 204.858C278.093 207.183 275.064 208.49 271.903 208.494V208.494ZM271.903 185.037C269.801 185.037 267.745 185.685 265.997 186.901C264.249 188.116 262.886 189.843 262.082 191.863C261.277 193.884 261.067 196.107 261.477 198.252C261.887 200.397 262.9 202.368 264.386 203.914C265.873 205.461 267.767 206.514 269.83 206.94C271.892 207.367 274.029 207.148 275.972 206.311C277.914 205.474 279.574 204.057 280.743 202.238C281.911 200.42 282.534 198.282 282.534 196.095C282.531 193.163 281.41 190.352 279.417 188.279C277.424 186.206 274.722 185.04 271.903 185.037V185.037Z" fill="#3F3D56"/>
<path d="M402.913 208.494C400.556 208.494 398.251 207.767 396.291 206.404C394.331 205.042 392.803 203.105 391.901 200.84C390.998 198.574 390.762 196.081 391.222 193.676C391.682 191.271 392.818 189.061 394.485 187.327C396.152 185.593 398.276 184.412 400.588 183.934C402.9 183.455 405.297 183.701 407.475 184.639C409.653 185.578 411.515 187.167 412.825 189.206C414.135 191.245 414.834 193.642 414.834 196.095C414.83 199.382 413.573 202.534 411.338 204.858C409.104 207.183 406.074 208.49 402.913 208.494V208.494ZM402.913 185.037C400.811 185.037 398.755 185.685 397.007 186.901C395.259 188.116 393.897 189.843 393.092 191.863C392.287 193.884 392.077 196.107 392.487 198.252C392.897 200.397 393.91 202.368 395.397 203.914C396.883 205.461 398.778 206.514 400.84 206.94C402.902 207.367 405.039 207.148 406.982 206.311C408.924 205.474 410.585 204.057 411.753 202.238C412.921 200.42 413.544 198.282 413.544 196.095C413.541 193.163 412.42 190.352 410.427 188.279C408.434 186.206 405.732 185.04 402.913 185.037V185.037Z" fill="#3F3D56"/>
<path d="M483.453 124.16C481.095 124.16 478.79 123.433 476.83 122.07C474.87 120.708 473.342 118.771 472.44 116.505C471.538 114.24 471.302 111.747 471.762 109.342C472.222 106.936 473.357 104.727 475.024 102.993C476.691 101.259 478.815 100.078 481.127 99.5996C483.44 99.1212 485.836 99.3667 488.014 100.305C490.193 101.244 492.054 102.833 493.364 104.872C494.674 106.911 495.373 109.308 495.373 111.76C495.37 115.048 494.112 118.199 491.878 120.524C489.643 122.849 486.613 124.156 483.453 124.16V124.16ZM483.453 100.703C481.35 100.703 479.295 101.351 477.547 102.566C475.798 103.781 474.436 105.508 473.631 107.529C472.827 109.55 472.616 111.773 473.026 113.918C473.437 116.063 474.449 118.033 475.936 119.58C477.423 121.126 479.317 122.179 481.379 122.606C483.441 123.033 485.579 122.814 487.521 121.977C489.464 121.14 491.124 119.722 492.292 117.904C493.46 116.085 494.084 113.947 494.084 111.76C494.08 108.829 492.959 106.018 490.966 103.945C488.973 101.872 486.271 100.706 483.453 100.703V100.703Z" fill="#3F3D56"/>
<path d="M12.5671 381.072C10.2095 381.072 7.9048 380.345 5.94447 378.983C3.98413 377.62 2.45623 375.684 1.55395 373.418C0.651684 371.153 0.415576 368.659 0.87549 366.254C1.3354 363.849 2.47068 361.64 4.13776 359.905C5.80484 358.171 7.92884 356.99 10.2412 356.512C12.5535 356.033 14.9503 356.279 17.1285 357.217C19.3066 358.156 21.1684 359.745 22.4782 361.784C23.788 363.823 24.4872 366.221 24.4872 368.673C24.4836 371.96 23.2266 375.112 20.992 377.437C18.7573 379.761 15.7275 381.069 12.5671 381.072V381.072ZM12.5671 357.615C10.4645 357.615 8.40912 358.263 6.66084 359.478C4.91255 360.693 3.54991 362.42 2.74524 364.441C1.94056 366.462 1.72999 368.685 2.14015 370.83C2.55031 372.975 3.56278 374.946 5.04953 376.492C6.53627 378.039 8.43052 379.092 10.4927 379.519C12.5549 379.945 14.6925 379.726 16.635 378.889C18.5776 378.052 20.2379 376.635 21.4061 374.817C22.5742 372.998 23.1977 370.86 23.1977 368.673C23.1945 365.741 22.0735 362.931 20.0806 360.858C18.0876 358.784 15.3856 357.618 12.5671 357.615V357.615Z" fill="#3F3D56"/>
<path d="M100.623 203.914C97.8029 203.914 95.0101 204.492 92.4044 205.614C89.7986 206.737 87.431 208.383 85.4367 210.457C83.4423 212.532 81.8603 214.994 80.781 217.705C79.7017 220.415 79.1462 223.32 79.1462 226.254C79.1462 238.592 100.623 279.312 100.623 279.312C100.623 279.312 122.1 238.592 122.1 226.254C122.1 223.32 121.545 220.415 120.466 217.705C119.386 214.994 117.804 212.532 115.81 210.457C113.816 208.383 111.448 206.737 108.842 205.614C106.236 204.492 103.444 203.914 100.623 203.914V203.914ZM100.623 237.983C98.3932 237.983 96.2132 237.295 94.359 236.006C92.5047 234.717 91.0595 232.886 90.2061 230.742C89.3527 228.599 89.1294 226.241 89.5645 223.966C89.9995 221.691 91.0734 219.601 92.6503 217.961C94.2272 216.321 96.2363 215.203 98.4236 214.751C100.611 214.298 102.878 214.531 104.938 215.418C106.999 216.306 108.76 217.809 109.998 219.738C111.237 221.667 111.899 223.934 111.899 226.254C111.899 229.365 110.711 232.348 108.596 234.548C106.482 236.747 103.614 237.983 100.623 237.983V237.983Z" fill="#FADE34"/>
<path d="M271.903 120.138C266.207 120.138 260.744 122.492 256.717 126.681C252.689 130.871 250.426 136.553 250.426 142.478C250.426 154.816 271.903 195.536 271.903 195.536C271.903 195.536 293.38 154.816 293.38 142.478C293.38 139.545 292.825 136.64 291.746 133.929C290.666 131.219 289.084 128.756 287.09 126.681C285.096 124.607 282.728 122.961 280.122 121.839C277.516 120.716 274.724 120.138 271.903 120.138V120.138ZM271.903 154.207C269.673 154.207 267.493 153.519 265.639 152.23C263.785 150.942 262.339 149.11 261.486 146.967C260.633 144.824 260.409 142.465 260.844 140.19C261.28 137.915 262.353 135.825 263.93 134.185C265.507 132.545 267.516 131.428 269.704 130.975C271.891 130.523 274.158 130.755 276.218 131.643C278.279 132.53 280.039 134.034 281.278 135.962C282.517 137.891 283.179 140.159 283.179 142.478C283.179 145.589 281.991 148.572 279.876 150.772C277.762 152.971 274.894 154.207 271.903 154.207V154.207Z" fill="#FADE34"/>
<path d="M642.42 48.5747C637.874 62.5745 630.904 75.3304 616.698 75.3304C602.492 75.3304 591.776 63.328 590.976 48.5747C589.953 29.7229 602.164 21.7409 616.698 21.819C633.867 21.9112 647.815 31.9604 642.42 48.5747Z" fill="#2F2E41"/>
<path d="M641.743 46.4624H590.976V113.352H641.743V46.4624Z" fill="#2F2E41"/>
<path d="M643.234 96.2952H647.552C647.552 96.2952 658.107 110.269 653.309 129.234C648.511 148.198 652.349 151.692 652.349 151.692C652.349 151.692 658.596 172.229 651.879 203.171C645.162 234.113 658.107 242.522 658.107 242.522L646.112 217.568L639.395 151.692L643.234 96.2952Z" fill="#575A89"/>
<path opacity="0.1" d="M643.234 97.9369H647.552C647.552 97.9369 658.107 111.911 653.309 130.875C648.511 149.84 652.349 153.333 652.349 153.333C652.349 153.333 658.596 173.87 651.879 204.812C645.162 235.754 658.107 244.163 658.107 244.163L646.112 219.21L639.395 153.333L643.234 97.9369Z" fill="black"/>
<path d="M628.12 72.0905C628.12 72.0905 624.282 88.0606 626.201 88.0606C628.12 88.0606 634.837 96.5447 634.837 96.5447L639.156 113.014L635.797 124.991L624.282 122.496L609.889 106.027L605.571 101.535L601.732 87.0625C601.732 87.0625 606.53 81.0737 603.172 76.083C599.813 71.0924 628.12 72.0905 628.12 72.0905Z" fill="#FBBEBE"/>
<path opacity="0.1" d="M628.12 72.0905C628.12 72.0905 624.282 88.0606 626.201 88.0606C628.12 88.0606 634.837 96.5447 634.837 96.5447L639.156 113.014L635.797 124.991L624.282 122.496L609.889 106.027L605.571 101.535L601.732 87.0625C601.732 87.0625 606.53 81.0737 603.172 76.083C599.813 71.0924 628.12 72.0905 628.12 72.0905Z" fill="black"/>
<path d="M512.012 116.507L501.457 98.541C501.457 98.541 490.063 72.3179 481.907 81.8002C473.751 91.2824 494.26 110.519 494.26 110.519L504.816 124.992L512.012 116.507Z" fill="#FBBEBE"/>
<path d="M652.11 272.715L644.433 331.106C644.433 331.106 645.393 335.597 635.797 352.067C626.201 368.536 600.293 404.469 600.293 404.469L592.616 389.497C592.616 389.497 601.732 342.085 617.565 332.104L615.646 260.238L652.11 272.715Z" fill="#FBBEBE"/>
<path opacity="0.1" d="M652.11 272.715L644.433 331.106C644.433 331.106 645.393 335.597 635.797 352.067C626.201 368.536 600.293 404.469 600.293 404.469L592.616 389.497C592.616 389.497 601.732 342.085 617.565 332.104L615.646 260.238L652.11 272.715Z" fill="black"/>
<path d="M592.616 383.508L603.172 404.469C603.172 404.469 594.535 429.921 597.894 432.416C601.252 434.912 605.57 457.37 596.455 454.874C587.339 452.379 580.142 442.398 580.142 440.9C580.142 439.403 585.42 418.442 582.541 413.452C579.662 408.461 577.743 406.964 577.743 406.964L570.546 419.441L568.147 417.943L580.142 396.983C580.142 396.983 581.581 392.99 587.339 390.495L592.616 383.508Z" fill="#2F2E41"/>
<path opacity="0.1" d="M592.616 383.508L603.172 404.469C603.172 404.469 594.535 429.921 597.894 432.416C601.252 434.912 605.57 457.37 596.455 454.874C587.339 452.379 580.142 442.398 580.142 440.9C580.142 439.403 585.42 418.442 582.541 413.452C579.662 408.461 577.743 406.964 577.743 406.964L570.546 419.441L568.147 417.943L580.142 396.983C580.142 396.983 581.581 392.99 587.339 390.495L592.616 383.508Z" fill="black"/>
<path d="M615.758 264.431C615.758 264.431 619.484 319.627 611.328 334.1V405.966L600.293 407.463C600.293 407.463 578.008 369.415 586.164 331.986C594.321 294.556 577.743 260.238 577.743 260.238L615.758 264.431Z" fill="#FBBEBE"/>
<path d="M613.007 84.3177C624.136 84.3177 633.158 74.9332 633.158 63.3569C633.158 51.7806 624.136 42.3961 613.007 42.3961C601.878 42.3961 592.856 51.7806 592.856 63.3569C592.856 74.9332 601.878 84.3177 613.007 84.3177Z" fill="#FBBEBE"/>
<path d="M633.398 118.504L613.247 92.0532L601.732 84.0681L596.934 90.556L583.5 94.5485C583.5 94.5485 574.864 96.5448 565.748 107.524C556.632 118.504 540.32 124.992 540.32 124.992L526.886 122.496C526.886 122.496 511.053 115.01 511.053 113.014C511.053 111.018 497.139 126.489 500.498 132.478C503.856 138.466 511.053 145.952 514.891 149.945C518.729 153.937 520.169 165.416 543.678 161.922C567.188 158.429 575.824 146.451 575.824 146.451C575.824 146.451 580.142 169.408 592.616 173.9C605.091 178.392 645.872 181.386 645.872 181.386L654.509 151.442C654.509 151.442 664.104 138.466 651.15 119.502C651.15 119.502 650.901 108.896 649.509 101.838C648.967 99.0926 648.252 96.8843 647.312 96.0458C643.953 93.0514 626.201 88.0607 626.201 88.0607C626.201 88.0607 629.08 98.042 630.519 98.5411C631.959 99.0401 635.317 116.008 633.398 118.504Z" fill="#575A89"/>
<path d="M568.867 267.475C593.029 265.728 607.096 269.845 613.372 272.985C614.538 273.534 615.637 274.228 616.644 275.051C617.105 275.455 617.325 275.769 617.325 275.959C617.325 277.456 650.43 280.451 662.425 277.456C674.42 274.462 654.269 210.082 648.991 204.593C643.713 199.103 646.559 179.01 646.559 179.01C646.559 179.01 636.037 176.645 633.158 177.643C630.279 178.641 615.406 176.146 610.128 173.151C604.851 170.157 598.134 172.153 593.816 171.155C591.887 170.711 590.913 171.46 590.428 172.428C589.674 173.88 588.535 175.077 587.147 175.876C576.961 181.98 568.785 224.181 562.63 247.512C555.913 272.965 568.867 267.475 568.867 267.475Z" fill="#2F2E41"/>
<path d="M613.247 401.474L615.166 412.454C615.166 412.454 625.242 427.426 622.363 439.902C622.363 439.902 624.762 456.371 633.398 460.863C642.034 465.355 634.837 475.835 626.681 475.336C618.525 474.837 610.848 475.835 609.889 473.34C608.929 470.844 603.172 446.39 603.172 446.39L601.596 475.006L596.799 475.506L598.374 442.398C598.374 442.398 594.535 434.912 599.813 422.435L598.481 403.283C598.481 403.283 611.808 406.465 613.247 401.474Z" fill="#2F2E41"/>
<path opacity="0.1" d="M613.372 272.985C614.539 273.534 615.637 274.227 616.644 275.051C616.898 270.335 618.366 241.813 616.606 242.272L613.372 272.985Z" fill="black"/>
<path d="M604.665 34.4928C604.665 34.4928 604.442 33.2005 595.714 36.6051C586.986 40.0096 581.754 65.1334 586.118 79.8863C587.877 85.8317 586.446 90.1183 584.111 93.1176C575.349 104.373 578.798 121.277 591.561 127.065C591.921 127.229 592.289 127.39 592.664 127.55L598.119 130.954C598.119 130.954 591.165 121.437 594.645 109.262C597.667 98.8884 598.041 87.8752 595.728 77.3062C595.329 75.5233 594.875 73.6855 594.36 71.8099C589.996 55.9222 592.119 57.757 607.393 41.8692C607.393 41.8692 616.121 48.6783 623.758 52.0828C631.395 55.4873 637.94 58.8918 632.486 70.2402C627.031 81.5886 613.939 91.8022 622.667 106.555C631.395 121.308 632.486 115.634 631.395 121.308L630.304 126.982L636.85 120.173L632.486 129.252C632.486 129.252 646.668 129.252 651.032 117.903L653.214 120.173C653.214 120.173 661.942 104.285 645.577 89.5325C645.577 89.5325 640.123 86.128 647.759 74.7796C655.396 63.4312 649.531 39.0321 639.712 34.4927C629.893 29.9534 604.665 34.4928 604.665 34.4928Z" fill="#2F2E41"/>
<path d="M616.698 27.4518C622.305 27.4518 626.851 22.7233 626.851 16.8903C626.851 11.0574 622.305 6.32886 616.698 6.32886C611.09 6.32886 606.544 11.0574 606.544 16.8903C606.544 22.7233 611.09 27.4518 616.698 27.4518Z" fill="#2F2E41"/>
<path d="M604.514 11.2575C604.514 8.63938 605.449 6.11464 607.137 4.17301C608.826 2.23139 611.147 1.01129 613.652 0.749379C613.318 0.714869 612.979 0.696045 612.636 0.696045C609.944 0.696045 607.361 1.80877 605.457 3.78943C603.553 5.77009 602.483 8.45644 602.483 11.2575C602.483 14.0586 603.553 16.7449 605.457 18.7256C607.361 20.7063 609.944 21.819 612.636 21.819C612.979 21.819 613.318 21.8002 613.652 21.7657C611.147 21.5037 608.826 20.2836 607.137 18.342C605.449 16.4004 604.514 13.8756 604.514 11.2575V11.2575Z" fill="#2F2E41"/>
<path d="M483.453 39.7134C480.632 39.7134 477.84 40.2912 475.234 41.4139C472.628 42.5366 470.26 44.1822 468.266 46.2567C466.272 48.3312 464.69 50.7939 463.61 53.5044C462.531 56.2148 461.976 59.1198 461.976 62.0536C461.976 74.3917 483.453 115.112 483.453 115.112C483.453 115.112 504.93 74.3917 504.93 62.0536C504.93 59.1198 504.374 56.2148 503.295 53.5044C502.216 50.7939 500.634 48.3312 498.639 46.2567C496.645 44.1822 494.277 42.5366 491.672 41.4139C489.066 40.2912 486.273 39.7134 483.453 39.7134V39.7134ZM483.453 73.7822C481.223 73.7822 479.043 73.0943 477.188 71.8056C475.334 70.5168 473.889 68.6851 473.036 66.542C472.182 64.3988 471.959 62.0406 472.394 59.7655C472.829 57.4904 473.903 55.4005 475.48 53.7602C477.057 52.12 479.066 51.0029 481.253 50.5504C483.44 50.0978 485.707 50.3301 487.768 51.2178C489.828 52.1055 491.589 53.6088 492.828 55.5376C494.067 57.4663 494.728 59.7339 494.728 62.0536C494.728 65.1642 493.54 68.1474 491.426 70.347C489.311 72.5465 486.443 73.7822 483.453 73.7822V73.7822Z" fill="#FADE34"/>
<path d="M310.318 455.388C316.736 455.388 321.939 449.976 321.939 443.3C321.939 436.624 316.736 431.212 310.318 431.212C303.899 431.212 298.696 436.624 298.696 443.3C298.696 449.976 303.899 455.388 310.318 455.388Z" fill="#F1F1F1"/>
<path d="M382.621 404.256C389.039 404.256 394.242 398.844 394.242 392.168C394.242 385.492 389.039 380.08 382.621 380.08C376.202 380.08 370.999 385.492 370.999 392.168C370.999 398.844 376.202 404.256 382.621 404.256Z" fill="#F1F1F1"/>
<path d="M293.206 356.646C299.624 356.646 304.827 351.234 304.827 344.557C304.827 337.881 299.624 332.469 293.206 332.469C286.788 332.469 281.585 337.881 281.585 344.557C281.585 351.234 286.788 356.646 293.206 356.646Z" fill="#F1F1F1"/>
</g>
<defs>
<clipPath id="clip0">
<rect width="731.398" height="476" fill="white" transform="translate(0.646851)"/>
</clipPath>
</defs>
</svg>
